<svg id="Layer_1" data-name="Layer 1" xmlns="http://www.w3.org/2000/svg" viewBox="0 0 488 262.06"><defs><style>.cls-1{fill:#fff;}.cls-2{fill:#231f20;}</style></defs><title>pantsu-dark</title><path class="cls-1" d="M485.21,115a7.83,7.83,0,0,0-6.58-1.65l-58.44,11.7c-133.3,26.66-218.86,26.66-352.17,0L9.56,113.37A8,8,0,0,0,0,121.24l.25,63.84a8,8,0,0,0,2.43,5.71L190.84,373a7.89,7.89,0,0,0,5.54,2.15l95.55.15h0a7.87,7.87,0,0,0,5.56-2.15L485.7,190.61a7.72,7.72,0,0,0,2.3-5.69V121.21A7.91,7.91,0,0,0,485.21,115Z" transform="translate(0 -113.21)"/><path class="cls-2" d="M64.91,140.75c135.67,27.13,222.64,27.13,358.32,0L472,131V180c-55,2.41-101.27,19.84-134.84,50.56-35,32-53.27,76.51-53.08,128.87l-81-.22c.1-52.19-17.87-96.45-52.2-128.27-33.26-30.85-79.75-48.3-134.66-50.62L16,131Z" transform="translate(0 -113.21)"/><path class="cls-2" d="M456,197.31,300.45,348.12C302.73,305.31,319,269,348.1,242.4,375.39,217.43,412.4,202,456,197.31Z" transform="translate(0 -113.21)"/><path class="cls-2" d="M186.77,346.77l-154-149.15c43.54,4.69,80.34,20.09,107.3,45.08C168.25,268.87,184.22,304.59,186.77,346.77Z" transform="translate(0 -113.21)"/></svg>