<?xml version="1.0" encoding="utf-8"?>
<!-- Generator: Adobe Illustrator 23.0.6, SVG Export Plug-In . SVG Version: 6.00 Build 0)  -->
<svg version="1.1" id="Layer_1" xmlns="http://www.w3.org/2000/svg" xmlns:xlink="http://www.w3.org/1999/xlink" x="0px" y="0px"
	 viewBox="0 0 488 262.1" enable-background="new 0 0 488 262.1" xml:space="preserve">
<title>pantsu-dark</title>
<path fill="#231F20" d="M485.2,1.8c-1.8-1.5-4.2-2.1-6.6-1.7l-58.4,11.7C286.9,38.5,201.3,38.5,68,11.8L9.6,0.2
	C5.2-0.7,1,2.1,0.2,6.4C0,7,0,7.5,0,8l0.3,63.8c0,2.2,0.9,4.2,2.4,5.7l188.2,182.2c1.5,1.4,3.5,2.2,5.5,2.1l95.6,0.1l0,0
	c2.1,0,4.1-0.7,5.6-2.1L485.7,77.4c1.5-1.5,2.4-3.6,2.3-5.7V8C488.1,5.6,487,3.3,485.2,1.8z"/>
<path fill="#FFFFFF" d="M64.9,27.5c135.7,27.1,222.6,27.1,358.3,0l48.8-9.8v49c-55,2.4-101.3,19.8-134.8,50.6
	c-35,32-53.3,76.5-53.1,128.9l-81-0.2c0.1-52.2-17.9-96.4-52.2-128.3C117.6,86.9,71.1,69.4,16.2,67.1L16,17.8L64.9,27.5z"/>
<path fill="#C7C8CA" d="M456,84.1L300.5,234.9c2.3-42.8,18.5-79.1,47.6-105.7C375.4,104.2,412.4,88.8,456,84.1z"/>
<path fill="#C7C8CA" d="M186.8,233.6L32.8,84.4c43.5,4.7,80.3,20.1,107.3,45.1C168.3,155.7,184.2,191.4,186.8,233.6z"/>
</svg>
